HIERARCHY
ROOT Model
{
	OFFSET 0 0 0
	CHANNELS 6 Xposition Yposition Zposition Zrotation Xrotation Yrotation
	JOINT Model1
	{
		OFFSET 0 -2.25479 2.99384
		CHANNELS 3 Zrotation Xrotation Yrotation
		JOINT Model2
		{
			OFFSET 12.111 0 0
			CHANNELS 3 Zrotation Xrotation Yrotation
			JOINT Model3
			{
				OFFSET 11.5502 0 0
				CHANNELS 3 Zrotation Xrotation Yrotation
				JOINT Model4
				{
					OFFSET 11.781 0 0
					CHANNELS 3 Zrotation Xrotation Yrotation
					JOINT Model5
					{
						OFFSET 20.0601 0 0
						CHANNELS 3 Zrotation Xrotation Yrotation
						JOINT Model6
						{
							OFFSET 11.1962 0 0
							CHANNELS 3 Zrotation Xrotation Yrotation
							End Site
							{
								OFFSET 0 0 0
							}
						}
					}
					JOINT Model7
					{
						OFFSET 10.8223 0.417534 3.51114
						CHANNELS 3 Zrotation Xrotation Yrotation
						JOINT Model8
						{
							OFFSET -6.07944 0 0
							CHANNELS 3 Zrotation Xrotation Yrotation
							JOINT Model9
							{
								OFFSET -0.277405 10.39 -0.051239
								CHANNELS 3 Zrotation Xrotation Yrotation
								JOINT Model10
								{
									OFFSET -3.43909 -0.282043 1.86679
									CHANNELS 3 Zrotation Xrotation Yrotation
									JOINT Model11
									{
										OFFSET 13.0269 0 0
										CHANNELS 3 Zrotation Xrotation Yrotation
										JOINT Model12
										{
											OFFSET 10.8866 0 0
											CHANNELS 3 Zrotation Xrotation Yrotation
											JOINT Model13
											{
												OFFSET 16.7317 0 0
												CHANNELS 3 Zrotation Xrotation Yrotation
												JOINT Model14
												{
													OFFSET 11.8292 0 0
													CHANNELS 3 Zrotation Xrotation Yrotation
													JOINT Model15
													{
														OFFSET 4.82751 -3.73566 -0.836517
														CHANNELS 3 Zrotation Xrotation Yrotation
														JOINT Model16
														{
															OFFSET 3.75311 -0.0582886 -0.0186462
															CHANNELS 3 Zrotation Xrotation Yrotation
															JOINT Model17
															{
																OFFSET 2.88689 0.0192337 0.014801
																CHANNELS 3 Zrotation Xrotation Yrotation
																End Site
																{
																	OFFSET 0 0 0
																}
															}
														}
													}
													JOINT Model18
													{
														OFFSET 9.72197 -3.06458 0.23877
														CHANNELS 3 Zrotation Xrotation Yrotation
														JOINT Model19
														{
															OFFSET 4.61131 0 0
															CHANNELS 3 Zrotation Xrotation Yrotation
															JOINT Model20
															{
																OFFSET 2.8969 -7.62939e-006 0
																CHANNELS 3 Zrotation Xrotation Yrotation
																End Site
																{
																	OFFSET 0 0 0
																}
															}
														}
													}
													JOINT Model21
													{
														OFFSET 9.54431 -0.745064 0.588928
														CHANNELS 3 Zrotation Xrotation Yrotation
														JOINT Model22
														{
															OFFSET 5.33978 0 0
															CHANNELS 3 Zrotation Xrotation Yrotation
															JOINT Model23
															{
																OFFSET 3.03619 7.62939e-006 0
																CHANNELS 3 Zrotation Xrotation Yrotation
																End Site
																{
																	OFFSET 0 0 0
																}
															}
														}
													}
													JOINT Model24
													{
														OFFSET 9.47758 1.51286 0.485107
														CHANNELS 3 Zrotation Xrotation Yrotation
														JOINT Model25
														{
															OFFSET 4.96136 7.62939e-006 0
															CHANNELS 3 Zrotation Xrotation Yrotation
															JOINT Model26
															{
																OFFSET 2.51965 0 0
																CHANNELS 3 Zrotation Xrotation Yrotation
																End Site
																{
																	OFFSET 0 0 0
																}
															}
														}
													}
													JOINT Model27
													{
														OFFSET 9.34247 3.34117 -0.239288
														CHANNELS 3 Zrotation Xrotation Yrotation
														JOINT Model28
														{
															OFFSET 3.28259 2.28882e-005 0
															CHANNELS 3 Zrotation Xrotation Yrotation
															JOINT Model29
															{
																OFFSET 2.1292 0 0
																CHANNELS 3 Zrotation Xrotation Yrotation
																End Site
																{
																	OFFSET 0 0 0
																}
															}
														}
													}
												}
											}
										}
									}
								}
							}
						}
					}
					JOINT Model30
					{
						OFFSET 10.8223 0.4179 -3.51108
						CHANNELS 3 Zrotation Xrotation Yrotation
						JOINT Model31
						{
							OFFSET 6.07944 0 0
							CHANNELS 3 Zrotation Xrotation Yrotation
							JOINT Model32
							{
								OFFSET 0.277405 -10.39 0.051239
								CHANNELS 3 Zrotation Xrotation Yrotation
								JOINT Model33
								{
									OFFSET 3.43909 0.282043 -1.86679
									CHANNELS 3 Zrotation Xrotation Yrotation
									JOINT Model34
									{
										OFFSET -13.0269 0 0
										CHANNELS 3 Zrotation Xrotation Yrotation
										JOINT Model35
										{
											OFFSET -10.8866 0 0
											CHANNELS 3 Zrotation Xrotation Yrotation
											JOINT Model36
											{
												OFFSET -16.7317 0 0
												CHANNELS 3 Zrotation Xrotation Yrotation
												JOINT Model37
												{
													OFFSET -11.8292 0 0
													CHANNELS 3 Zrotation Xrotation Yrotation
													JOINT Model38
													{
														OFFSET -4.82751 3.73566 0.836517
														CHANNELS 3 Zrotation Xrotation Yrotation
														JOINT Model39
														{
															OFFSET -3.75311 0.0582886 0.0186462
															CHANNELS 3 Zrotation Xrotation Yrotation
															JOINT Model40
															{
																OFFSET -2.88687 -0.0192337 -0.014801
																CHANNELS 3 Zrotation Xrotation Yrotation
																End Site
																{
																	OFFSET 0 0 0
																}
															}
														}
													}
													JOINT Model41
													{
														OFFSET -9.72198 3.06459 -0.23877
														CHANNELS 3 Zrotation Xrotation Yrotation
														JOINT Model42
														{
															OFFSET -4.6113 0 0
															CHANNELS 3 Zrotation Xrotation Yrotation
															JOINT Model43
															{
																OFFSET -2.89691 0 0
																CHANNELS 3 Zrotation Xrotation Yrotation
																End Site
																{
																	OFFSET 0 0 0
																}
															}
														}
													}
													JOINT Model44
													{
														OFFSET -9.54431 0.745064 -0.588928
														CHANNELS 3 Zrotation Xrotation Yrotation
														JOINT Model45
														{
															OFFSET -5.33978 0 0
															CHANNELS 3 Zrotation Xrotation Yrotation
															JOINT Model46
															{
																OFFSET -3.03619 -1.52588e-005 0
																CHANNELS 3 Zrotation Xrotation Yrotation
																End Site
																{
																	OFFSET 0 0 0
																}
															}
														}
													}
													JOINT Model47
													{
														OFFSET -9.4776 -1.51286 -0.485107
														CHANNELS 3 Zrotation Xrotation Yrotation
														JOINT Model48
														{
															OFFSET -4.96136 -1.52588e-005 0
															CHANNELS 3 Zrotation Xrotation Yrotation
															JOINT Model49
															{
																OFFSET -2.51965 0 0
																CHANNELS 3 Zrotation Xrotation Yrotation
																End Site
																{
																	OFFSET 0 0 0
																}
															}
														}
													}
													JOINT Model50
													{
														OFFSET -9.34247 -3.34118 0.239288
														CHANNELS 3 Zrotation Xrotation Yrotation
														JOINT Model51
														{
															OFFSET -3.28259 -2.28882e-005 0
															CHANNELS 3 Zrotation Xrotation Yrotation
															JOINT Model52
															{
																OFFSET -2.12921 0 0
																CHANNELS 3 Zrotation Xrotation Yrotation
																End Site
																{
																	OFFSET 0 0 0
																}
															}
														}
													}
												}
											}
										}
									}
								}
							}
						}
					}
				}
			}
		}
	}
	JOINT Model53
	{
		OFFSET 4.38025 -2.14632 -1.11517
		CHANNELS 3 Zrotation Xrotation Yrotation
		JOINT Model54
		{
			OFFSET 0 0 4.94998
			CHANNELS 3 Zrotation Xrotation Yrotation
			JOINT Model55
			{
				OFFSET 18.5642 0 0
				CHANNELS 3 Zrotation Xrotation Yrotation
				JOINT Model56
				{
					OFFSET 21.2884 0 0
					CHANNELS 3 Zrotation Xrotation Yrotation
					JOINT Model57
					{
						OFFSET 30.261 0 0
						CHANNELS 3 Zrotation Xrotation Yrotation
						JOINT Model58
						{
							OFFSET 11.7259 0 0
							CHANNELS 3 Zrotation Xrotation Yrotation
							JOINT Model59
							{
								OFFSET 10.682 0 0
								CHANNELS 3 Zrotation Xrotation Yrotation
								End Site
								{
									OFFSET 0 0 0
								}
							}
						}
					}
				}
			}
		}
	}
	JOINT Model60
	{
		OFFSET -4.38025 -2.14632 -1.11517
		CHANNELS 3 Zrotation Xrotation Yrotation
		JOINT Model61
		{
			OFFSET 0 0 -4.94998
			CHANNELS 3 Zrotation Xrotation Yrotation
			JOINT Model62
			{
				OFFSET -18.5642 0 0
				CHANNELS 3 Zrotation Xrotation Yrotation
				JOINT Model63
				{
					OFFSET -21.2884 0 0
					CHANNELS 3 Zrotation Xrotation Yrotation
					JOINT Model64
					{
						OFFSET -30.261 0 0
						CHANNELS 3 Zrotation Xrotation Yrotation
						JOINT Model65
						{
							OFFSET -11.7259 0 0
							CHANNELS 3 Zrotation Xrotation Yrotation
							JOINT Model66
							{
								OFFSET -10.682 0 0
								CHANNELS 3 Zrotation Xrotation Yrotation
								End Site
								{
									OFFSET 0 0 0
								}
							}
						}
					}
				}
			}
		}
	}
}
MOTION
Frames: 4
Frame Time: 0.033333
-103.988 174.023 -477.887 175.638 80.2092 7.128 -180 4.29621e-031 -90 -0.308997 -2.77384 -0.0211175 -0.620113 -5.54796 -0.0573331 -0.620113 -5.54752 -0.0573283 6.01543 5.94641 5.53899 15.4237 6.35457 -6.37213 120.092 75.5343 58.4939 5.85872 8.91508 1.58541 -167.277 84.4999 48.8109 147.947 -10.781 8.85315 6.64952e-006 4.04437 2.84622e-005 -77.0811 -2.5328 0.594278 7.33521e-012 -4.38019 -1.94304e-007 0.577242 -0.0557053 -11.0244 -72.0648 39.0385 39.3397 33.3638 2.10362 14.835 0.588947 0.308273 6.35287 -99.6409 81.413 100.35 -0.018141 2.78575e-005 -0.117315 -0.124139 0.00241122 -0.799296 -79.8382 79.5773 80.5374 -0.000225799 -0.000220846 2.22052e-005 -0.000956256 0.000122998 -2.7306e-005 -66.7416 80.4058 67.2171 -0.000437155 1.60231e-005 -2.73109e-005 -0.000136635 -0.000109186 -5.4628e-005 -6.42159 81.2158 8.01779 -0.000218594 1.69888e-005 0.000212143 0.000901547 -0.000184693 -0.000218562 -59.9282 75.5373 58.5147 -21.5551 -9.84136 -0.979519 -167.277 84.4999 48.8109 -137.99 -2.64875 17.4383 3.12846e-006 6.03302 3.1596e-005 -59.2343 13.753 0.538065 -2.83646e-006 19.9589 1.03049e-006 -14.0768 -0.886991 7.17487 -72.0648 39.0385 39.3397 33.3638 2.10361 14.835 0.588946 0.308273 6.35287 -99.6409 81.413 100.35 -0.0181409 3.01127e-005 -0.117315 -0.124139 0.00241118 -0.799296 -79.8382 79.5773 80.5374 -0.000260643 -0.000218532 2.35681e-005 -0.000956223 0.000123043 -2.7324e-005 -66.7416 80.4058 67.2171 -0.000437129 1.4916e-005 -2.73241e-005 -0.0001366 -0.000109236 -5.46461e-005 -6.42159 81.2158 8.01779 -0.000218565 1.96123e-005 0.000212289 0.000901585 -0.0001912 -0.000218577 0.000811311 0.56661 89.91 21.6081 -10.2956 -3.95353 -3.73698e-006 -10.2702 -3.46167e-007 29.2329 7.66033 -0.00408779 1.64551e-007 11.436 1.94429e-007 -61.2179 9.37956 -6.50648 -48.3678 1.2485 -0.739398 -180 -0.566579 -90.09 -64.4411 -1.71311 -5.03132 -1.18611e-008 -2.70515 -6.30419e-010 72.1009 -2.65351 -0.00765399 4.59081e-007 -4.09698 1.67708e-007 -51.5098 6.15853 -4.88337 -35.4947 -2.79644e-006 2.79569e-007 
-104.028 175.57 -498.571 -166.281 81.4723 -11.8096 -180 4.29621e-031 -90 -0.74703 -3.97383 0.0908796 -1.49313 -7.94895 0.130142 -1.49313 -7.94851 0.130153 6.2124 7.21943 4.62719 14.6031 7.45365 -7.17868 120.092 75.5343 58.4939 16.0892 11.7708 -0.424781 -167.277 84.4999 48.8109 140.425 -16.0142 -1.13523 1.09217e-005 -4.56079 2.84815e-005 -90.706 -3.10685 0.609899 -2.35551e-009 -5.07422 -1.94499e-007 3.5938 -0.425648 -13.5049 -72.0648 39.0385 39.3397 33.3638 2.10362 14.835 0.588947 0.308273 6.35287 -99.6409 81.413 100.35 -0.018141 2.78575e-005 -0.117315 -0.124139 0.00241122 -0.799296 -79.8382 79.5773 80.5374 -0.000225799 -0.000220846 2.22052e-005 -0.000956256 0.000122998 -2.7306e-005 -66.7416 80.4058 67.2171 -0.000437155 1.60231e-005 -2.73109e-005 -0.000136635 -0.000109186 -5.4628e-005 -6.42159 81.2158 8.01779 -0.000218594 1.69888e-005 0.000212143 0.000901547 -0.000184693 -0.000218562 -59.9282 75.5373 58.5147 -17.7162 -7.40782 -0.105908 -167.277 84.4999 48.8109 -130.044 -6.66367 15.2653 5.66409e-006 1.43143 3.14308e-005 -45.3345 15.851 0.44934 -2.89868e-006 23.142 1.05336e-006 -17.8663 -1.24098 7.88269 -72.0648 39.0385 39.3397 33.3638 2.10361 14.835 0.588946 0.308273 6.35287 -99.6409 81.413 100.35 -0.0181409 3.01127e-005 -0.117315 -0.124139 0.00241118 -0.799296 -79.8382 79.5773 80.5374 -0.000260643 -0.000218532 2.35681e-005 -0.000956223 0.000123043 -2.7324e-005 -66.7416 80.4058 67.2171 -0.000437129 1.4916e-005 -2.73241e-005 -0.0001366 -0.000109236 -5.46461e-005 -6.42159 81.2158 8.01779 -0.000218565 1.96123e-005 0.000212289 0.000901585 -0.0001912 -0.000218577 0.000811311 0.56661 89.91 30.6124 -12.7981 -4.38886 -3.75102e-006 -12.5396 -3.48945e-007 27.671 4.09836 -0.00383085 1.82748e-007 6.09624 1.91653e-007 -47.4153 6.58204 -5.40088 -35.4947 6.01114e-007 8.60193e-008 -180 -0.566579 -90.09 -57.7028 -0.287928 -5.1972 -1.18327e-008 -0.120911 -6.29718e-010 43.2762 -2.22573 -0.0055058 4.57095e-007 -3.4197 1.67578e-007 -44.3541 1.95103 -1.63572 -35.4947 -3.11003e-006 3.16776e-007 
-104.384 175.947 -519.632 -161.379 80.5854 -19.0295 -180 4.29621e-031 -90 -0.729927 -4.29144 -0.106433 -1.47411 -8.58159 -0.268999 -1.4741 -8.58116 -0.268988 6.84401 7.56446 1.05902 13.0815 7.40024 -5.10829 120.092 75.5343 58.4939 21.8565 10.0028 -2.12627 -167.277 84.4999 48.8109 139.128 -18.7775 -6.51119 1.32888e-005 -9.26586 2.87667e-005 -102.132 -2.92956 0.596167 -7.74932e-010 -4.61011 -1.94365e-007 6.83635 -0.90714 -15.0999 -72.0648 39.0385 39.3397 33.3638 2.10362 14.835 0.588947 0.308273 6.35287 -99.6409 81.413 100.35 -0.018141 2.78575e-005 -0.117315 -0.124139 0.00241122 -0.799296 -79.8382 79.5773 80.5374 -0.000225799 -0.000220846 2.22052e-005 -0.000956256 0.000122998 -2.7306e-005 -66.7416 80.4058 67.2171 -0.000437155 1.60231e-005 -2.73109e-005 -0.000136635 -0.000109186 -5.4628e-005 -6.42159 81.2158 8.01779 -0.000218594 1.69888e-005 0.000212143 0.000901547 -0.000184693 -0.000218562 -59.9282 75.5373 58.5147 -13.8451 -4.74901 0.664597 -167.277 84.4999 48.8109 -124.67 -6.61901 15.233 6.06617e-006 0.698514 3.14233e-005 -41.9861 15.5043 0.421885 -2.88877e-006 22.6442 1.0495e-006 -18.2321 -1.44902 9.01212 -72.0648 39.0385 39.3397 33.3638 2.10361 14.835 0.588946 0.308273 6.35287 -99.6409 81.413 100.35 -0.0181409 3.01127e-005 -0.117315 -0.124139 0.00241118 -0.799296 -79.8382 79.5773 80.5374 -0.000260643 -0.000218532 2.35681e-005 -0.000956223 0.000123043 -2.7324e-005 -66.7416 80.4058 67.2171 -0.000437129 1.4916e-005 -2.73241e-005 -0.0001366 -0.000109236 -5.46461e-005 -6.42159 81.2158 8.01779 -0.000218565 1.96123e-005 0.000212289 0.000901585 -0.0001912 -0.000218577 0.000811311 0.56661 89.91 29.6296 -11.9023 -4.88135 -3.73871e-006 -10.552 -3.4648e-007 46.4958 0.0824101 -0.00597923 2.02977e-007 0.037324 1.90569e-007 -46.8507 4.27378 -3.55671 -35.4947 6.94672e-007 -1.31128e-007 -180 -0.566579 -90.09 -42.6013 1.95699 -7.40404 -1.17785e-008 4.79911 -6.31932e-010 14.9659 -3.8637 0.937896 4.64149e-007 -5.81977 1.68146e-007 -31.026 0.439564 0.223676 -35.4947 -2.99549e-006 3.07219e-007 
-104.564 175.672 -540.585 -161.959 79.1446 -19.0835 -180 4.29621e-031 -90 -0.420946 -3.54003 -0.344602 -0.846941 -7.01582 -0.570535 -0.847936 -7.0153 -0.570071 7.94004 6.0274 -0.193955 11.8141 5.81744 -3.19139 120.092 75.5343 58.4939 18.8112 7.17045 -1.77706 -167.277 84.4999 48.8109 141.521 -16.7012 -2.12091 1.13912e-005 -5.50102 2.85227e-005 -109.068 -2.1664 0.575978 3.59924e-009 -3.32274 -1.94063e-007 9.64893 -1.29072 -15.2033 -72.0648 39.0385 39.3397 33.3638 2.10362 14.835 0.588947 0.308273 6.35287 -99.6409 81.413 100.35 -0.018141 2.78575e-005 -0.117315 -0.124139 0.00241122 -0.799296 -79.8382 79.5773 80.5374 -0.000225799 -0.000220846 2.22052e-005 -0.000956256 0.000122998 -2.7306e-005 -66.7416 80.4058 67.2171 -0.000437155 1.60231e-005 -2.73109e-005 -0.000136635 -0.000109186 -5.4628e-005 -6.42159 81.2158 8.01779 -0.000218594 1.69888e-005 0.000212143 0.000901547 -0.000184693 -0.000218562 -59.9282 75.5373 58.5147 -14.8255 -6.36831 0.0501466 -167.277 84.4999 48.8109 -123.941 -4.76639 16.1064 5.34251e-006 2.0173 3.14405e-005 -49.0867 13.5781 0.472698 -2.83177e-006 19.7136 1.0289e-006 -14.0521 -1.47739 11.9445 -72.0648 39.0385 39.3397 33.3638 2.10361 14.835 0.588946 0.308273 6.35287 -99.6409 81.413 100.35 -0.0181409 3.01127e-005 -0.117315 -0.124139 0.00241118 -0.799296 -79.8382 79.5773 80.5374 -0.000260643 -0.000218532 2.35681e-005 -0.000956223 0.000123043 -2.7324e-005 -66.7416 80.4058 67.2171 -0.000437129 1.4916e-005 -2.73241e-005 -0.0001366 -0.000109236 -5.46461e-005 -6.42159 81.2158 8.01779 -0.000218565 1.96123e-005 0.000212289 0.000901585 -0.0001912 -0.000218577 0.000811311 0.56661 89.91 22.2837 -11.9065 -7.1154 -3.72604e-006 -8.47994 -3.44386e-007 70.7374 -0.165381 -0.00780032 2.0431e-007 -0.363452 1.90573e-007 -50.2342 3.27424 -2.73695 -35.4947 2.46133e-006 -2.59049e-007 -180 -0.566579 -90.09 -27.6381 -0.641203 -7.99461 -1.18018e-008 2.68604 -6.30409e-010 0.0182002 -2.41615 -0.275943 4.57661e-007 -3.61307 1.67612e-007 -20.8558 1.28339 -0.302067 -35.4947 -2.30506e-006 2.34435e-007 
